M48
; DRILL file {KiCad 7.0.7} date 2024 May 09, Thursday 15:43:58
; FORMAT={-:-/ absolute / metric / decimal}
; #@! TF.CreationDate,2024-05-09T15:43:58-04:00
; #@! TF.GenerationSoftware,Kicad,Pcbnew,7.0.7
; #@! TF.FileFunction,MixedPlating,1,2
FMAT,2
METRIC
; #@! TA.AperFunction,Plated,PTH,ComponentDrill
T1C1.000
; #@! TA.AperFunction,Plated,PTH,ComponentDrill
T2C1.200
%
G90
G05
T1
X51.91Y-34.35
X54.45Y-34.35
X56.99Y-34.35
X59.5Y-42.02
X59.5Y-57.26
X59.53Y-34.35
X62.04Y-42.02
X62.04Y-57.26
X62.07Y-34.35
X64.58Y-42.02
X64.58Y-57.26
X64.61Y-34.35
X67.12Y-42.02
X67.12Y-57.26
X67.15Y-34.35
X69.66Y-42.02
X69.66Y-57.26
X69.69Y-34.35
X72.2Y-42.02
X72.2Y-57.26
X72.23Y-34.35
X74.74Y-42.02
X74.74Y-57.26
X74.77Y-34.35
X77.28Y-42.02
X77.28Y-57.26
X77.31Y-34.35
X79.82Y-42.02
X79.82Y-57.26
X79.85Y-34.35
X82.36Y-42.02
X82.36Y-57.26
X82.39Y-34.35
X84.9Y-42.02
X84.9Y-57.26
X84.93Y-34.35
X87.44Y-42.02
X87.44Y-57.26
X87.47Y-34.35
X89.98Y-42.02
X89.98Y-57.26
X90.01Y-34.35
X92.52Y-42.02
X92.52Y-57.26
X92.55Y-34.35
T2
X37.59Y-52.64
X52.83Y-52.64
T1
G00X40.11Y-40.145
M15
G01X40.11Y-41.395
M16
G05
G00X45.11Y-40.145
M15
G01X45.11Y-41.395
M16
G05
G00X50.11Y-40.145
M15
G01X50.11Y-41.395
M16
G05
T0
M30
